HIERARCHY
ROOT root
{
	OFFSET 0.000000 0.000000 0.000000
	CHANNELS 6 Xposition Yposition Zposition Zrotation Yrotation Xrotation
	JOINT lhip
	{
		OFFSET 0.058581 -0.082280 -0.017664
		CHANNELS 3 Zrotation Yrotation Xrotation
		JOINT lknee
		{
			OFFSET 0.043451 -0.386469 0.008037
			CHANNELS 3 Zrotation Yrotation Xrotation
			JOINT lankle
			{
				OFFSET -0.014790 -0.426874 -0.037428
				CHANNELS 3 Zrotation Yrotation Xrotation
				JOINT ltoe
				{
					OFFSET 0.041054 -0.060286 0.122042
					CHANNELS 3 Zrotation Yrotation Xrotation
					End Site
					{
						OFFSET 0.000000 0.000000 0.000000
					}
				}
			}
		}
	}
	JOINT rhip
	{
		OFFSET -0.060310 -0.090513 -0.013543
		CHANNELS 3 Zrotation Yrotation Xrotation
		JOINT rknee
		{
			OFFSET -0.043257 -0.383688 -0.004843
			CHANNELS 3 Zrotation Yrotation Xrotation
			JOINT rankle
			{
				OFFSET 0.019056 -0.420046 -0.034562
				CHANNELS 3 Zrotation Yrotation Xrotation
				JOINT rtoe
				{
					OFFSET -0.034840 -0.062106 0.130323
					CHANNELS 3 Zrotation Yrotation Xrotation
					End Site
					{
						OFFSET 0.000000 0.000000 0.000000
					}
				}
			}
		}
	}
	JOINT lowerback
	{
		OFFSET 0.004439 0.124404 -0.038385
		CHANNELS 3 Zrotation Yrotation Xrotation
		JOINT upperback
		{
			OFFSET 0.004488 0.137956 0.026820
			CHANNELS 3 Zrotation Yrotation Xrotation
			JOINT chest
			{
				OFFSET -0.002265 0.056032 0.002855
				CHANNELS 3 Zrotation Yrotation Xrotation
				JOINT lowerneck
				{
					OFFSET -0.013390 0.211636 -0.033468
					CHANNELS 3 Zrotation Yrotation Xrotation
					JOINT upperneck
					{
						OFFSET 0.010113 0.088937 0.050410
						CHANNELS 3 Zrotation Yrotation Xrotation
						End Site
						{
							OFFSET 0.000000 0.000000 0.000000
						}
					}
				}
				JOINT lclavicle
				{
					OFFSET 0.071702 0.114000 -0.018898
					CHANNELS 3 Zrotation Yrotation Xrotation
					JOINT lshoulder
					{
						OFFSET 0.122921 0.045205 -0.019046
						CHANNELS 3 Zrotation Yrotation Xrotation
						JOINT lelbow
						{
							OFFSET 0.255332 -0.015649 -0.022946
							CHANNELS 3 Zrotation Yrotation Xrotation
							JOINT lwrist
							{
								OFFSET 0.265709 0.012698 -0.007375
								CHANNELS 3 Zrotation Yrotation Xrotation
								End Site
								{
									OFFSET 0.000000 0.000000 0.000000
								}
							}
						}
					}
				}
				JOINT rclavicle
				{
					OFFSET -0.082954 0.112472 -0.023707
					CHANNELS 3 Zrotation Yrotation Xrotation
					JOINT rshoulder
					{
						OFFSET -0.113228 0.046853 -0.008472
						CHANNELS 3 Zrotation Yrotation Xrotation
						JOINT relbow
						{
							OFFSET -0.260127 -0.014369 -0.031269
							CHANNELS 3 Zrotation Yrotation Xrotation
							JOINT rwrist
							{
								OFFSET -0.269108 0.006794 -0.006027
								CHANNELS 3 Zrotation Yrotation Xrotation
								End Site
								{
									OFFSET 0.000000 0.000000 0.000000
								}
							}
						}
					}
				}
			}
		}
	}
}
MOTION
Frames: 10
Frame Time: 0.033333
0.306564 0.657396 0.995171 10.680614 -0.454396 89.136683 1.372471 6.196002 3.652902 -1.034441 1.866190 -0.295121 4.125644 14.651156 -9.520697 0.000000 -0.000000 0.000000 0.122296 -1.195257 -2.507971 -0.870022 3.611951 6.595069 0.881141 -6.053591 -8.225545 0.000000 -0.000000 0.000000 0.770639 1.279758 4.222880 1.657465 -1.453599 10.451914 -1.560700 0.256484 -3.885849 1.784274 1.444029 -5.281161 0.767244 1.373935 12.775204 -35.228786 0.610560 -2.955570 -49.318692 -2.481401 13.059520 10.315062 -18.426448 0.254313 -2.338373 -3.099235 11.285402 32.710448 -1.740600 3.005352 44.942897 1.436653 13.304905 -9.654516 30.577265 0.775621 6.387156 5.579143 15.290660 
0.304933 0.655886 0.995315 10.621890 -0.415964 89.184598 1.548235 6.264370 3.647805 -1.105664 1.737271 -0.270668 4.122567 14.723648 -9.443245 0.000000 -0.000000 0.000000 0.230274 -1.270891 -2.391121 -0.828174 3.837688 6.412897 0.955533 -6.177840 -8.187862 0.000000 -0.000000 0.000000 0.954809 1.203563 4.578031 1.563935 -1.500479 9.780577 -1.528889 0.148322 -3.705467 1.798498 1.095196 -5.084670 0.809094 1.815258 12.914434 -35.172550 0.824491 -2.897601 -49.365113 -2.583902 13.131855 10.347381 -18.442164 0.573813 -2.380220 -3.031362 10.966628 32.778250 -1.883840 2.764672 44.906695 1.229523 13.623796 -9.612359 30.653409 1.037765 6.536587 5.320060 14.913645 
0.303824 0.654591 0.995215 10.498018 -0.479756 89.293138 1.581647 6.258621 3.651761 -1.093087 1.751087 -0.245183 4.110269 14.742867 -9.453137 0.000000 -0.000000 0.000000 0.247477 -1.284823 -2.304084 -0.810185 3.853838 6.294580 0.950927 -6.177882 -8.181052 0.000000 -0.000000 0.000000 1.030954 1.084312 4.591007 1.593085 -1.610665 9.703161 -1.485273 0.045696 -3.712967 1.806027 1.064627 -5.072189 0.818843 1.846299 12.926554 -35.162336 0.724166 -2.961788 -49.397966 -2.729143 13.153259 10.384330 -18.573216 0.596403 -2.408979 -3.041149 10.912702 32.649617 -1.930618 2.762262 44.861636 1.161594 13.643889 -9.601745 30.566340 1.068653 6.586212 5.303589 14.835506 
0.302034 0.652407 0.995087 10.361414 -0.548316 89.428317 1.621324 6.263344 3.645228 -1.070584 1.768423 -0.236940 4.081098 14.770928 -9.449368 0.000000 -0.000000 0.000000 0.285542 -1.314137 -2.224888 -0.780826 3.895655 6.089420 0.935591 -6.183081 -8.176025 0.000000 -0.000000 0.000000 1.124184 0.947668 4.633671 1.614241 -1.741453 9.573485 -1.446222 -0.071612 -3.742172 1.821122 1.018657 -5.047351 0.827049 1.873038 12.976679 -35.188728 0.574698 -3.068028 -49.498303 -2.987629 13.189194 10.397265 -18.821394 0.661924 -2.429586 -3.081187 10.842068 32.572957 -1.936630 2.736037 44.829277 1.057509 13.703513 -9.573773 30.441969 1.127018 6.641698 5.271222 14.753365 
0.301097 0.650977 0.995002 10.255300 -0.522798 89.543321 1.675769 6.259683 3.613994 -1.027304 1.833438 -0.268424 4.051275 14.830896 -9.433680 0.000000 -0.000000 0.000000 0.360217 -1.319056 -2.205651 -0.758266 3.979832 5.868811 0.910456 -6.162846 -8.163909 0.000000 -0.000000 0.000000 1.245755 0.921592 4.672199 1.638988 -1.756574 9.438250 -1.424514 -0.092621 -3.737629 1.825798 0.871740 -5.000025 0.833383 1.859030 13.054071 -35.220539 0.496344 -3.110502 -49.587636 -3.207767 13.259239 10.419698 -19.131181 0.684235 -2.395653 -3.121828 10.741344 32.488388 -1.907614 2.706727 44.742056 0.994110 13.771859 -9.566739 30.302252 1.138259 6.687971 5.204159 14.620737 
0.299953 0.649543 0.994904 10.150070 -0.478586 89.724322 1.755911 6.277117 3.577138 -0.936072 1.918709 -0.378767 4.013756 14.894492 -9.408431 0.000000 -0.000000 0.000000 0.483470 -1.289935 -2.249408 -0.700102 4.074367 5.658698 0.854974 -6.109834 -8.159598 0.000000 -0.000000 0.000000 1.427263 0.854259 4.715532 1.691435 -1.767879 9.199120 -1.384620 -0.128187 -3.686457 1.863249 0.461118 -4.986047 0.848315 1.585666 13.297153 -35.252205 0.364592 -3.112899 -49.776692 -3.609140 13.419973 10.432044 -19.755904 0.728922 -2.294007 -3.229521 10.520257 32.344007 -1.891174 2.701972 44.765976 0.948859 13.866796 -9.669661 29.977447 1.116840 6.726867 5.111932 14.303854 
0.298060 0.648781 0.995000 9.963476 -0.419417 89.860826 1.871724 6.400988 3.673231 -0.840167 2.136075 -0.744148 3.912036 14.912459 -9.260263 0.000000 -0.000000 0.000000 0.682586 -1.178554 -2.469020 -0.666109 4.168298 5.830922 0.716430 -5.959366 -8.256755 0.000000 -0.000000 0.000000 1.591995 0.701543 4.861798 1.698333 -1.701653 8.777331 -1.365578 -0.177250 -3.526273 1.815962 -1.051077 -4.688008 0.743629 0.408081 13.957933 -35.233638 0.206875 -2.676622 -49.993691 -4.213130 13.579194 10.589711 -20.988538 0.676378 -1.943444 -3.479917 10.030603 32.401612 -1.717878 2.924468 44.773465 1.045175 13.952188 -9.850936 29.587956 1.124259 6.644252 4.929152 13.865086 
0.296328 0.647318 0.994846 9.889494 -0.511246 89.866047 1.916568 6.666321 3.961066 -0.836174 2.517135 -1.124112 3.497406 14.577926 -9.286387 0.000000 -0.000000 0.000000 0.717920 -1.081239 -2.503015 -0.640859 3.939232 6.061627 0.506675 -5.662030 -8.448397 0.000000 -0.000000 0.000000 1.704455 0.264067 4.725448 1.663332 -1.675966 8.488961 -1.479440 -0.495378 -3.360583 1.378276 -3.371898 -3.959988 0.176818 -2.063797 15.100986 -35.312469 0.152422 -1.544361 -50.053885 -4.711578 13.225609 11.252489 -22.583118 -0.002868 -1.195629 -3.572573 9.348083 32.200106 -1.531589 2.817402 45.330783 1.339061 13.868073 -9.719793 29.106034 1.749672 6.766415 4.653888 13.846399 
0.294091 0.644836 0.994598 9.195863 -0.372461 89.847761 2.199886 7.086721 4.462858 -0.752248 3.113300 -1.547398 3.352512 14.380187 -9.391602 0.000000 -0.000000 0.000000 0.941809 -0.797407 -2.588398 -0.498507 3.708179 6.469162 0.435308 -5.034030 -8.742723 0.000000 -0.000000 0.000000 1.669803 -0.229453 4.593138 1.970081 -1.847415 8.304702 -1.314345 -0.589753 -3.379836 0.887373 -5.167615 -3.094218 -1.178111 -4.790211 16.735428 -35.225626 0.553036 -0.631066 -50.810153 -4.922909 12.527995 12.224343 -24.103636 -1.418544 -0.163716 -3.451739 8.426589 31.705729 -1.398238 3.292602 45.538909 2.110505 13.664520 -9.696340 29.168293 2.427813 6.280529 4.567013 14.230471 
0.290155 0.642275 0.994921 8.076865 -0.311889 89.917186 2.459059 7.627104 4.636573 -0.618244 3.537947 -1.373345 3.268709 14.554581 -9.751453 0.000000 -0.000000 0.000000 1.414407 -0.478454 -2.857176 -0.635208 4.145348 6.932705 0.111930 -4.757736 -8.970490 0.000000 -0.000000 0.000000 1.617398 -0.482514 4.081893 2.519708 -2.253984 9.083105 -1.602145 -1.024950 -4.334953 0.477669 -7.118940 -1.342589 -2.552839 -7.079983 18.143441 -35.845295 1.602906 -1.004122 -50.445686 -4.822661 12.336310 12.726961 -24.982267 -3.814953 0.234896 -3.550643 9.052943 32.405213 -0.820953 1.461029 44.936608 1.089632 14.084341 -9.767982 29.268575 1.896710 6.762501 4.813080 15.616472 
